<?xml version="1.0" encoding="utf-8"?>
<!-- Generator: Adobe Illustrator 25.0.1, SVG Export Plug-In . SVG Version: 6.00 Build 0)  -->
<svg version="1.1" id="Layer_1" xmlns="http://www.w3.org/2000/svg" xmlns:xlink="http://www.w3.org/1999/xlink" x="0px" y="0px"
	 viewBox="0 0 512 512" style="enable-background:new 0 0 512 512;" xml:space="preserve">
<style type="text/css">
	.st0{fill:#2080E1;}
	.st1{fill:#FEFEFE;}
</style>
<path class="st0" d="M512,256.7c-0.3,140.9-116.5,256.5-256.7,255.4C113.6,511-0.3,396.5,0,255.3C0.3,114.4,116.5-1.3,256.7-0.2
	C398.5,1,512.3,115.4,512,256.7z"/>
<path class="st1" d="M206.8,299.2c54.3-59.7,33.2-116.3,3.6-173.6c14.2-1.3,25.2,6.5,38.3,6.8c0.3-5.3,0.3-10.4,0.9-15.3
	c1-8.4,5.7-13.9,14.3-14c8.6-0.1,15.5,5.7,14.2,13.6c-3.5,21.9,10.3,32.8,24.5,44.3c4.4,3.5,8.2,7.9,12,12.1
	c39.6,44,39.3,72-0.9,115.2c-6.5,6.9-12.9,12.7-23.3,11.1c-12.8-1.9-11.2,7.1-11.5,15.1c-0.4,9,0.5,14.6,12.4,14.8
	c17,0.3,31.6-2.7,42.6-16.4c5.7-7,13.1-10.1,21.6-12.4c18.7-4.9,37-10.8,55.7-15.8c3.6-1,9.6-6.2,11.3,0.6
	c1.5,5.8,4.6,15.1-3.5,18.3c-25.1,9.7-35.6,32.4-48.8,52.7c-13.8,21.2-31.6,32.1-58.2,31c-38.6-1.6-77.3-0.1-116-0.5
	c-46.9-0.5-83.4-32.9-87.8-76.5c-1.1-10.3,1-14.8,12.2-14.2c13,0.7,26.2,0.5,39.2,0.1c14.1-0.4,27.7-2.7,30.7,18
	c1.5,9.9,12.8,13.7,23,14.5c6.8,0.5,13.7-0.4,20.4,0.3c11,1.1,16.1-1.4,16.2-14.3c0.2-13.4-4.5-17-16.7-15.5
	C226.6,299.8,219.8,299.2,206.8,299.2z"/>
<path class="st1" d="M124.2,267.9c24.7-38.6,47.4-74,72-112.5c15.1,36.1,29.8,68.2,7.4,103.6c-3.6,5.7-7,9.3-14.5,9.1
	C168.7,267.6,148.4,267.9,124.2,267.9z"/>
</svg>
