<?xml version="1.0" encoding="utf-8"?>
<!-- Generator: Adobe Illustrator 25.0.1, SVG Export Plug-In . SVG Version: 6.00 Build 0)  -->
<svg version="1.1" id="Layer_1" xmlns="http://www.w3.org/2000/svg" xmlns:xlink="http://www.w3.org/1999/xlink" x="0px" y="0px"
	 viewBox="0 0 1920 1080" style="enable-background:new 0 0 1920 1080;" xml:space="preserve">
<style type="text/css">
	.st0{fill:#2080E1;}
	.st1{fill:#FEFEFE;}
</style>
<path class="st0" d="M1180.74,540.77c-0.27,149.9-123.99,273-273.18,271.82C756.75,811.4,635.62,689.52,635.9,539.23
	c0.27-149.88,124.02-273.01,273.19-271.82C1059.98,268.61,1181.02,390.4,1180.74,540.77z"/>
<path class="st1" d="M855.98,585.95c57.8-63.49,35.31-123.74,3.8-184.73c15.16-1.4,26.84,6.93,40.78,7.19
	c0.3-5.69,0.32-11.04,0.92-16.33c1.02-8.95,6.02-14.82,15.21-14.93c9.18-0.1,16.49,6.04,15.15,14.5
	c-3.68,23.27,10.96,34.93,26.11,47.12c4.68,3.76,8.73,8.37,12.77,12.86c42.12,46.84,41.77,76.59-1,122.59
	c-6.87,7.38-13.71,13.47-24.79,11.8c-13.64-2.05-11.92,7.57-12.29,16.12c-0.41,9.58,0.51,15.51,13.15,15.74
	c18.05,0.34,33.67-2.92,45.37-17.46c6.02-7.49,13.92-10.79,23-13.16c19.85-5.19,39.42-11.47,59.23-16.81
	c3.87-1.04,10.2-6.55,12.05,0.66c1.6,6.21,4.91,16.07-3.77,19.44c-26.7,10.37-37.88,34.45-51.89,56.05
	c-14.65,22.58-33.67,34.17-61.94,33c-41.08-1.7-82.29-0.1-123.44-0.53c-49.89-0.52-88.72-35.01-93.48-81.39
	c-1.12-10.92,1.06-15.78,12.98-15.12c13.88,0.77,27.84,0.52,41.75,0.09c15.04-0.46,29.44-2.92,32.72,19.15
	c1.57,10.56,13.66,14.61,24.49,15.44c7.22,0.55,14.57-0.39,21.76,0.34c11.7,1.18,17.09-1.47,17.25-15.25
	c0.16-14.3-4.8-18.08-17.78-16.53C877.02,586.65,869.78,585.95,855.98,585.95z"/>
<path class="st1" d="M768.1,552.7c26.25-41.04,50.39-78.76,76.57-119.69c16.04,38.37,31.75,72.61,7.83,110.2
	c-3.84,6.04-7.47,9.87-15.45,9.68C815.43,552.35,793.78,552.7,768.1,552.7z"/>
</svg>
